# xmcd
#
# Track frame offsets:
#  150
#  20446
#  40153
#  54925
#  79571
#  110078
#  131243
#  147380
#  168421
#  209976
#
# Disc length: 3275 seconds
#
# Revision: 0
# Processed by: cddbd v1.5.1PL0 Copyright (c) Steve Scherf et al.
# Submitted via: Collectorz.com Music Collector 6.9
#
DISCID=910cc90a
DTITLE=joe ely - Richardson Wildflower Festival 2005
DYEAR=2005
DGENRE=
TTITLE0=Ain't Been Here Long
TTITLE1=On The Run Again
TTITLE2=Treat Me Like A Saturday Night
TTITLE3=Row Of Dominoes
TTITLE4=Me And Billy The Kid
TTITLE5=All That You Need
TTITLE6=Tennessee Is Not The State I'm In
TTITLE7=All Just To Get To You
TTITLE8=Behind The Bamboo Shade
TTITLE9=Gallo Del Cielo
EXTD=
EXTT0=
EXTT1=
EXTT2=
EXTT3=
EXTT4=
EXTT5=
EXTT6=
EXTT7=
EXTT8=
EXTT9=
PLAYORDER=
